<svg xmlns="http://www.w3.org/2000/svg" xmlns:xlink="http://www.w3.org/1999/xlink" width="500" zoomAndPan="magnify" viewBox="0 0 375 374.999991" height="500" preserveAspectRatio="xMidYMid meet" version="1.0"><defs><g/><clipPath id="e02188bf6d"><path d="M 82.585938 143.003906 L 149 143.003906 L 149 211.253906 L 82.585938 211.253906 Z M 82.585938 143.003906 " clip-rule="nonzero"/></clipPath><clipPath id="c160cccea2"><path d="M 103 163 L 185.335938 163 L 185.335938 191 L 103 191 Z M 103 163 " clip-rule="nonzero"/></clipPath></defs><g clip-path="url(#e02188bf6d)"><path fill="#ff1616" d="M 89.628906 180.097656 C 89.519531 179.121094 89.460938 178.128906 89.460938 177.121094 C 89.460938 176.113281 89.519531 175.121094 89.628906 174.144531 L 82.617188 170.578125 C 83.152344 167.828125 84.015625 165.199219 85.167969 162.730469 L 85.167969 162.726562 L 92.941406 163.960938 C 93.929688 162.226562 95.105469 160.609375 96.445312 159.144531 L 92.871094 152.152344 C 94.886719 150.277344 97.128906 148.640625 99.554688 147.292969 L 105.113281 152.851562 C 106.90625 152.039062 108.804688 151.410156 110.785156 151.007812 L 112.007812 143.257812 C 113.363281 143.09375 114.742188 143 116.140625 143 C 117.542969 143 118.917969 143.09375 120.273438 143.257812 L 121.5 151.007812 C 123.480469 151.410156 125.375 152.039062 127.171875 152.851562 L 132.730469 147.292969 C 135.15625 148.640625 137.398438 150.277344 139.414062 152.152344 L 135.839844 159.144531 C 137.179688 160.609375 138.351562 162.226562 139.34375 163.960938 L 147.113281 162.726562 C 147.84375 164.292969 148.460938 165.925781 148.949219 167.609375 L 132.136719 167.609375 C 128.886719 162.171875 122.941406 158.527344 116.140625 158.527344 C 105.859375 158.527344 97.527344 166.851562 97.527344 177.121094 C 97.527344 187.390625 105.859375 195.714844 116.140625 195.714844 C 122.941406 195.714844 128.886719 192.070312 132.136719 186.632812 L 148.949219 186.632812 C 148.460938 188.316406 147.84375 189.945312 147.113281 191.511719 L 139.34375 190.277344 C 138.351562 192.011719 137.179688 193.632812 135.839844 195.097656 L 139.414062 202.089844 C 137.398438 203.964844 135.15625 205.597656 132.730469 206.949219 L 127.167969 201.386719 C 125.375 202.203125 123.480469 202.832031 121.5 203.234375 L 120.273438 210.984375 C 118.917969 211.148438 117.542969 211.242188 116.140625 211.242188 C 114.742188 211.242188 113.363281 211.148438 112.007812 210.984375 L 110.785156 203.234375 C 108.804688 202.832031 106.90625 202.203125 105.113281 201.386719 L 99.554688 206.949219 C 97.128906 205.597656 94.886719 203.964844 92.871094 202.089844 L 96.445312 195.097656 C 95.105469 193.632812 93.929688 192.011719 92.941406 190.277344 L 85.167969 191.511719 C 84.015625 189.042969 83.152344 186.410156 82.617188 183.660156 L 89.628906 180.097656 " fill-opacity="1" fill-rule="nonzero"/></g><g clip-path="url(#c160cccea2)"><path fill="#ff1616" d="M 167.023438 176.65625 L 170.808594 170.113281 C 170.972656 169.828125 171.277344 169.652344 171.609375 169.652344 L 185.328125 169.652344 C 182.902344 166.011719 178.765625 163.609375 174.058594 163.609375 C 169.074219 163.609375 164.726562 166.3125 162.382812 170.328125 L 105.59375 170.328125 C 104.640625 170.328125 103.867188 171.101562 103.867188 172.050781 C 103.867188 173.003906 104.640625 173.777344 105.59375 173.777344 L 134.605469 173.777344 C 135.140625 173.777344 135.574219 174.210938 135.574219 174.746094 C 135.574219 175.285156 135.140625 175.71875 134.605469 175.71875 L 114.746094 175.71875 C 113.96875 175.71875 113.339844 176.347656 113.339844 177.121094 C 113.339844 177.894531 113.96875 178.523438 114.746094 178.523438 L 134.605469 178.523438 C 135.140625 178.523438 135.574219 178.957031 135.574219 179.492188 C 135.574219 180.027344 135.140625 180.460938 134.605469 180.460938 L 125.671875 180.460938 C 124.714844 180.460938 123.941406 181.234375 123.941406 182.1875 C 123.941406 183.140625 124.714844 183.914062 125.671875 183.914062 L 162.382812 183.914062 C 164.726562 187.925781 169.074219 190.632812 174.058594 190.632812 C 178.765625 190.632812 182.902344 188.230469 185.328125 184.589844 L 171.609375 184.589844 C 171.277344 184.589844 170.972656 184.414062 170.808594 184.125 L 167.023438 177.582031 C 166.859375 177.296875 166.859375 176.945312 167.023438 176.65625 " fill-opacity="1" fill-rule="nonzero"/></g><g fill="#ff1616" fill-opacity="0.302"><g transform="translate(209.440215, 195.496701)"><g><path d="M 19.546875 -29.421875 L 18.28125 -27.8125 C 17.757812 -28.101562 17.269531 -28.363281 16.8125 -28.59375 C 16.351562 -28.820312 15.882812 -29.007812 15.40625 -29.15625 C 14.925781 -29.300781 14.414062 -29.410156 13.875 -29.484375 C 13.34375 -29.554688 12.734375 -29.59375 12.046875 -29.59375 C 10.628906 -29.59375 9.363281 -29.359375 8.25 -28.890625 C 7.132812 -28.429688 6.1875 -27.8125 5.40625 -27.03125 C 4.632812 -26.25 4.046875 -25.351562 3.640625 -24.34375 C 3.234375 -23.332031 3.03125 -22.265625 3.03125 -21.140625 C 3.03125 -19.609375 3.5 -18.207031 4.4375 -16.9375 C 5.375 -15.664062 6.84375 -14.695312 8.84375 -14.03125 C 9.789062 -13.71875 10.597656 -13.457031 11.265625 -13.25 C 11.929688 -13.050781 12.550781 -12.859375 13.125 -12.671875 C 13.707031 -12.484375 14.289062 -12.28125 14.875 -12.0625 C 15.46875 -11.84375 16.15625 -11.546875 16.9375 -11.171875 C 17.925781 -10.710938 18.59375 -10.070312 18.9375 -9.25 C 19.28125 -8.425781 19.453125 -7.597656 19.453125 -6.765625 C 19.453125 -5.722656 19.25 -4.773438 18.84375 -3.921875 C 18.4375 -3.066406 17.898438 -2.347656 17.234375 -1.765625 C 16.578125 -1.191406 15.8125 -0.742188 14.9375 -0.421875 C 14.070312 -0.109375 13.195312 0.046875 12.3125 0.046875 C 11.269531 0.046875 10.269531 -0.132812 9.3125 -0.5 C 8.363281 -0.863281 7.484375 -1.375 6.671875 -2.03125 C 5.859375 -2.695312 5.15625 -3.519531 4.5625 -4.5 C 3.976562 -5.488281 3.523438 -6.585938 3.203125 -7.796875 C 3.117188 -8.171875 2.960938 -8.359375 2.734375 -8.359375 C 2.523438 -8.359375 2.421875 -8.15625 2.421875 -7.75 L 2.421875 0 C 2.421875 0.375 2.550781 0.5625 2.8125 0.5625 C 2.988281 0.5625 3.175781 0.414062 3.375 0.125 L 4.9375 -2.125 C 5.28125 -1.800781 5.703125 -1.46875 6.203125 -1.125 C 6.710938 -0.78125 7.28125 -0.460938 7.90625 -0.171875 C 8.53125 0.117188 9.195312 0.359375 9.90625 0.546875 C 10.613281 0.734375 11.34375 0.828125 12.09375 0.828125 C 13.476562 0.828125 14.757812 0.570312 15.9375 0.0625 C 17.125 -0.4375 18.148438 -1.132812 19.015625 -2.03125 C 19.890625 -2.925781 20.578125 -3.988281 21.078125 -5.21875 C 21.585938 -6.445312 21.84375 -7.769531 21.84375 -9.1875 C 21.84375 -11.125 21.382812 -12.765625 20.46875 -14.109375 C 19.5625 -15.453125 18.125 -16.410156 16.15625 -16.984375 C 15.5 -17.179688 14.878906 -17.351562 14.296875 -17.5 C 13.722656 -17.644531 13.128906 -17.800781 12.515625 -17.96875 C 11.910156 -18.144531 11.273438 -18.34375 10.609375 -18.5625 C 9.953125 -18.78125 9.21875 -19.050781 8.40625 -19.375 C 7.507812 -19.71875 6.828125 -20.25 6.359375 -20.96875 C 5.898438 -21.6875 5.671875 -22.523438 5.671875 -23.484375 C 5.671875 -24.378906 5.859375 -25.164062 6.234375 -25.84375 C 6.609375 -26.519531 7.09375 -27.070312 7.6875 -27.5 C 8.28125 -27.9375 8.957031 -28.265625 9.71875 -28.484375 C 10.488281 -28.703125 11.265625 -28.8125 12.046875 -28.8125 C 13.234375 -28.8125 14.273438 -28.609375 15.171875 -28.203125 C 16.066406 -27.796875 16.816406 -27.257812 17.421875 -26.59375 C 18.023438 -25.9375 18.503906 -25.171875 18.859375 -24.296875 C 19.222656 -23.429688 19.460938 -22.539062 19.578125 -21.625 C 19.609375 -21.332031 19.738281 -21.1875 19.96875 -21.1875 C 20.175781 -21.1875 20.28125 -21.332031 20.28125 -21.625 L 20.28125 -29.328125 C 20.28125 -29.617188 20.191406 -29.765625 20.015625 -29.765625 C 19.867188 -29.765625 19.710938 -29.648438 19.546875 -29.421875 Z M 19.546875 -29.421875 "/></g></g></g><g fill="#ff1616" fill-opacity="0.302"><g transform="translate(236.258346, 195.496701)"><g><path d="M 22.875 -1.859375 C 22.789062 -2.148438 22.726562 -2.554688 22.6875 -3.078125 C 22.644531 -3.597656 22.613281 -4.160156 22.59375 -4.765625 C 22.582031 -5.367188 22.566406 -5.988281 22.546875 -6.625 C 22.535156 -7.257812 22.488281 -7.867188 22.40625 -8.453125 C 22.226562 -9.609375 21.9375 -10.5625 21.53125 -11.3125 C 21.125 -12.0625 20.628906 -12.671875 20.046875 -13.140625 C 19.472656 -13.617188 18.8125 -13.992188 18.0625 -14.265625 C 17.3125 -14.546875 16.503906 -14.800781 15.640625 -15.03125 C 17.890625 -15.4375 19.617188 -16.238281 20.828125 -17.4375 C 22.046875 -18.632812 22.65625 -20.144531 22.65625 -21.96875 C 22.65625 -23.09375 22.414062 -24.101562 21.9375 -25 C 21.46875 -25.894531 20.828125 -26.644531 20.015625 -27.25 C 19.203125 -27.851562 18.238281 -28.3125 17.125 -28.625 C 16.019531 -28.945312 14.847656 -29.109375 13.609375 -29.109375 L 1.390625 -29.109375 L 1.390625 -28.421875 L 5.109375 -28.421875 L 5.109375 -0.6875 L 1.390625 -0.6875 L 1.390625 0 L 13.046875 0 L 13.046875 -0.6875 L 9.3125 -0.6875 L 9.3125 -14.859375 L 12.90625 -14.859375 C 13.375 -14.859375 13.867188 -14.78125 14.390625 -14.625 C 14.910156 -14.46875 15.394531 -14.164062 15.84375 -13.71875 C 16.289062 -13.269531 16.675781 -12.644531 17 -11.84375 C 17.332031 -11.050781 17.570312 -10.035156 17.71875 -8.796875 C 17.800781 -8.046875 17.847656 -7.28125 17.859375 -6.5 C 17.878906 -5.71875 17.925781 -4.960938 18 -4.234375 C 18.070312 -3.515625 18.203125 -2.851562 18.390625 -2.25 C 18.578125 -1.644531 18.875 -1.125 19.28125 -0.6875 C 19.65625 -0.289062 20.09375 -0.0195312 20.59375 0.125 C 21.101562 0.269531 21.648438 0.34375 22.234375 0.34375 C 22.722656 0.34375 23.210938 0.289062 23.703125 0.1875 C 24.191406 0.09375 24.644531 -0.0234375 25.0625 -0.171875 C 25.476562 -0.316406 25.835938 -0.46875 26.140625 -0.625 C 26.453125 -0.78125 26.675781 -0.929688 26.8125 -1.078125 C 26.90625 -1.171875 26.953125 -1.257812 26.953125 -1.34375 C 26.953125 -1.425781 26.90625 -1.46875 26.8125 -1.46875 C 26.757812 -1.46875 26.675781 -1.441406 26.5625 -1.390625 C 25.976562 -0.984375 25.328125 -0.78125 24.609375 -0.78125 C 23.710938 -0.78125 23.132812 -1.140625 22.875 -1.859375 Z M 9.3125 -15.5625 L 9.3125 -28.421875 L 13.609375 -28.421875 C 16.898438 -28.421875 18.546875 -26.53125 18.546875 -22.75 L 18.546875 -21.1875 C 18.546875 -17.4375 16.898438 -15.5625 13.609375 -15.5625 Z M 9.3125 -15.5625 "/></g></g></g><g fill="#ff1616" fill-opacity="0.302"><g transform="translate(266.802365, 195.496701)"><g><path d="M 12.609375 -28.421875 L 12.609375 -29.109375 L 1.46875 -29.109375 L 1.46875 -28.421875 L 4.9375 -28.421875 L 4.9375 -0.6875 L 1.46875 -0.6875 L 1.46875 0 L 12.609375 0 L 12.609375 -0.6875 L 9.140625 -0.6875 L 9.140625 -28.421875 Z M 21.921875 -28.421875 L 9.453125 -15.9375 L 20.140625 -0.6875 L 16.375 -0.6875 L 16.375 0 L 28.640625 0 L 28.640625 -0.6875 L 25.171875 -0.6875 L 12.90625 -18.28125 L 23.046875 -28.421875 L 26.734375 -28.421875 L 26.734375 -29.109375 L 18.203125 -29.109375 L 18.203125 -28.421875 Z M 21.921875 -28.421875 "/></g></g></g><g fill="#ff1616" fill-opacity="0.502"><g transform="translate(209.109776, 193.410398)"><g><path d="M 19.546875 -29.421875 L 18.28125 -27.8125 C 17.757812 -28.101562 17.269531 -28.363281 16.8125 -28.59375 C 16.351562 -28.820312 15.882812 -29.007812 15.40625 -29.15625 C 14.925781 -29.300781 14.414062 -29.410156 13.875 -29.484375 C 13.34375 -29.554688 12.734375 -29.59375 12.046875 -29.59375 C 10.628906 -29.59375 9.363281 -29.359375 8.25 -28.890625 C 7.132812 -28.429688 6.1875 -27.8125 5.40625 -27.03125 C 4.632812 -26.25 4.046875 -25.351562 3.640625 -24.34375 C 3.234375 -23.332031 3.03125 -22.265625 3.03125 -21.140625 C 3.03125 -19.609375 3.5 -18.207031 4.4375 -16.9375 C 5.375 -15.664062 6.84375 -14.695312 8.84375 -14.03125 C 9.789062 -13.71875 10.597656 -13.457031 11.265625 -13.25 C 11.929688 -13.050781 12.550781 -12.859375 13.125 -12.671875 C 13.707031 -12.484375 14.289062 -12.28125 14.875 -12.0625 C 15.46875 -11.84375 16.15625 -11.546875 16.9375 -11.171875 C 17.925781 -10.710938 18.59375 -10.070312 18.9375 -9.25 C 19.28125 -8.425781 19.453125 -7.597656 19.453125 -6.765625 C 19.453125 -5.722656 19.25 -4.773438 18.84375 -3.921875 C 18.4375 -3.066406 17.898438 -2.347656 17.234375 -1.765625 C 16.578125 -1.191406 15.8125 -0.742188 14.9375 -0.421875 C 14.070312 -0.109375 13.195312 0.046875 12.3125 0.046875 C 11.269531 0.046875 10.269531 -0.132812 9.3125 -0.5 C 8.363281 -0.863281 7.484375 -1.375 6.671875 -2.03125 C 5.859375 -2.695312 5.15625 -3.519531 4.5625 -4.5 C 3.976562 -5.488281 3.523438 -6.585938 3.203125 -7.796875 C 3.117188 -8.171875 2.960938 -8.359375 2.734375 -8.359375 C 2.523438 -8.359375 2.421875 -8.15625 2.421875 -7.75 L 2.421875 0 C 2.421875 0.375 2.550781 0.5625 2.8125 0.5625 C 2.988281 0.5625 3.175781 0.414062 3.375 0.125 L 4.9375 -2.125 C 5.28125 -1.800781 5.703125 -1.46875 6.203125 -1.125 C 6.710938 -0.78125 7.28125 -0.460938 7.90625 -0.171875 C 8.53125 0.117188 9.195312 0.359375 9.90625 0.546875 C 10.613281 0.734375 11.34375 0.828125 12.09375 0.828125 C 13.476562 0.828125 14.757812 0.570312 15.9375 0.0625 C 17.125 -0.4375 18.148438 -1.132812 19.015625 -2.03125 C 19.890625 -2.925781 20.578125 -3.988281 21.078125 -5.21875 C 21.585938 -6.445312 21.84375 -7.769531 21.84375 -9.1875 C 21.84375 -11.125 21.382812 -12.765625 20.46875 -14.109375 C 19.5625 -15.453125 18.125 -16.410156 16.15625 -16.984375 C 15.5 -17.179688 14.878906 -17.351562 14.296875 -17.5 C 13.722656 -17.644531 13.128906 -17.800781 12.515625 -17.96875 C 11.910156 -18.144531 11.273438 -18.34375 10.609375 -18.5625 C 9.953125 -18.78125 9.21875 -19.050781 8.40625 -19.375 C 7.507812 -19.71875 6.828125 -20.25 6.359375 -20.96875 C 5.898438 -21.6875 5.671875 -22.523438 5.671875 -23.484375 C 5.671875 -24.378906 5.859375 -25.164062 6.234375 -25.84375 C 6.609375 -26.519531 7.09375 -27.070312 7.6875 -27.5 C 8.28125 -27.9375 8.957031 -28.265625 9.71875 -28.484375 C 10.488281 -28.703125 11.265625 -28.8125 12.046875 -28.8125 C 13.234375 -28.8125 14.273438 -28.609375 15.171875 -28.203125 C 16.066406 -27.796875 16.816406 -27.257812 17.421875 -26.59375 C 18.023438 -25.9375 18.503906 -25.171875 18.859375 -24.296875 C 19.222656 -23.429688 19.460938 -22.539062 19.578125 -21.625 C 19.609375 -21.332031 19.738281 -21.1875 19.96875 -21.1875 C 20.175781 -21.1875 20.28125 -21.332031 20.28125 -21.625 L 20.28125 -29.328125 C 20.28125 -29.617188 20.191406 -29.765625 20.015625 -29.765625 C 19.867188 -29.765625 19.710938 -29.648438 19.546875 -29.421875 Z M 19.546875 -29.421875 "/></g></g></g><g fill="#ff1616" fill-opacity="0.502"><g transform="translate(235.927907, 193.410398)"><g><path d="M 22.875 -1.859375 C 22.789062 -2.148438 22.726562 -2.554688 22.6875 -3.078125 C 22.644531 -3.597656 22.613281 -4.160156 22.59375 -4.765625 C 22.582031 -5.367188 22.566406 -5.988281 22.546875 -6.625 C 22.535156 -7.257812 22.488281 -7.867188 22.40625 -8.453125 C 22.226562 -9.609375 21.9375 -10.5625 21.53125 -11.3125 C 21.125 -12.0625 20.628906 -12.671875 20.046875 -13.140625 C 19.472656 -13.617188 18.8125 -13.992188 18.0625 -14.265625 C 17.3125 -14.546875 16.503906 -14.800781 15.640625 -15.03125 C 17.890625 -15.4375 19.617188 -16.238281 20.828125 -17.4375 C 22.046875 -18.632812 22.65625 -20.144531 22.65625 -21.96875 C 22.65625 -23.09375 22.414062 -24.101562 21.9375 -25 C 21.46875 -25.894531 20.828125 -26.644531 20.015625 -27.25 C 19.203125 -27.851562 18.238281 -28.3125 17.125 -28.625 C 16.019531 -28.945312 14.847656 -29.109375 13.609375 -29.109375 L 1.390625 -29.109375 L 1.390625 -28.421875 L 5.109375 -28.421875 L 5.109375 -0.6875 L 1.390625 -0.6875 L 1.390625 0 L 13.046875 0 L 13.046875 -0.6875 L 9.3125 -0.6875 L 9.3125 -14.859375 L 12.90625 -14.859375 C 13.375 -14.859375 13.867188 -14.78125 14.390625 -14.625 C 14.910156 -14.46875 15.394531 -14.164062 15.84375 -13.71875 C 16.289062 -13.269531 16.675781 -12.644531 17 -11.84375 C 17.332031 -11.050781 17.570312 -10.035156 17.71875 -8.796875 C 17.800781 -8.046875 17.847656 -7.28125 17.859375 -6.5 C 17.878906 -5.71875 17.925781 -4.960938 18 -4.234375 C 18.070312 -3.515625 18.203125 -2.851562 18.390625 -2.25 C 18.578125 -1.644531 18.875 -1.125 19.28125 -0.6875 C 19.65625 -0.289062 20.09375 -0.0195312 20.59375 0.125 C 21.101562 0.269531 21.648438 0.34375 22.234375 0.34375 C 22.722656 0.34375 23.210938 0.289062 23.703125 0.1875 C 24.191406 0.09375 24.644531 -0.0234375 25.0625 -0.171875 C 25.476562 -0.316406 25.835938 -0.46875 26.140625 -0.625 C 26.453125 -0.78125 26.675781 -0.929688 26.8125 -1.078125 C 26.90625 -1.171875 26.953125 -1.257812 26.953125 -1.34375 C 26.953125 -1.425781 26.90625 -1.46875 26.8125 -1.46875 C 26.757812 -1.46875 26.675781 -1.441406 26.5625 -1.390625 C 25.976562 -0.984375 25.328125 -0.78125 24.609375 -0.78125 C 23.710938 -0.78125 23.132812 -1.140625 22.875 -1.859375 Z M 9.3125 -15.5625 L 9.3125 -28.421875 L 13.609375 -28.421875 C 16.898438 -28.421875 18.546875 -26.53125 18.546875 -22.75 L 18.546875 -21.1875 C 18.546875 -17.4375 16.898438 -15.5625 13.609375 -15.5625 Z M 9.3125 -15.5625 "/></g></g></g><g fill="#ff1616" fill-opacity="0.502"><g transform="translate(266.471926, 193.410398)"><g><path d="M 12.609375 -28.421875 L 12.609375 -29.109375 L 1.46875 -29.109375 L 1.46875 -28.421875 L 4.9375 -28.421875 L 4.9375 -0.6875 L 1.46875 -0.6875 L 1.46875 0 L 12.609375 0 L 12.609375 -0.6875 L 9.140625 -0.6875 L 9.140625 -28.421875 Z M 21.921875 -28.421875 L 9.453125 -15.9375 L 20.140625 -0.6875 L 16.375 -0.6875 L 16.375 0 L 28.640625 0 L 28.640625 -0.6875 L 25.171875 -0.6875 L 12.90625 -18.28125 L 23.046875 -28.421875 L 26.734375 -28.421875 L 26.734375 -29.109375 L 18.203125 -29.109375 L 18.203125 -28.421875 Z M 21.921875 -28.421875 "/></g></g></g><g fill="#000000" fill-opacity="1"><g transform="translate(208.779336, 191.324095)"><g><path d="M 19.546875 -29.421875 L 18.28125 -27.8125 C 17.757812 -28.101562 17.269531 -28.363281 16.8125 -28.59375 C 16.351562 -28.820312 15.882812 -29.007812 15.40625 -29.15625 C 14.925781 -29.300781 14.414062 -29.410156 13.875 -29.484375 C 13.34375 -29.554688 12.734375 -29.59375 12.046875 -29.59375 C 10.628906 -29.59375 9.363281 -29.359375 8.25 -28.890625 C 7.132812 -28.429688 6.1875 -27.8125 5.40625 -27.03125 C 4.632812 -26.25 4.046875 -25.351562 3.640625 -24.34375 C 3.234375 -23.332031 3.03125 -22.265625 3.03125 -21.140625 C 3.03125 -19.609375 3.5 -18.207031 4.4375 -16.9375 C 5.375 -15.664062 6.84375 -14.695312 8.84375 -14.03125 C 9.789062 -13.71875 10.597656 -13.457031 11.265625 -13.25 C 11.929688 -13.050781 12.550781 -12.859375 13.125 -12.671875 C 13.707031 -12.484375 14.289062 -12.28125 14.875 -12.0625 C 15.46875 -11.84375 16.15625 -11.546875 16.9375 -11.171875 C 17.925781 -10.710938 18.59375 -10.070312 18.9375 -9.25 C 19.28125 -8.425781 19.453125 -7.597656 19.453125 -6.765625 C 19.453125 -5.722656 19.25 -4.773438 18.84375 -3.921875 C 18.4375 -3.066406 17.898438 -2.347656 17.234375 -1.765625 C 16.578125 -1.191406 15.8125 -0.742188 14.9375 -0.421875 C 14.070312 -0.109375 13.195312 0.046875 12.3125 0.046875 C 11.269531 0.046875 10.269531 -0.132812 9.3125 -0.5 C 8.363281 -0.863281 7.484375 -1.375 6.671875 -2.03125 C 5.859375 -2.695312 5.15625 -3.519531 4.5625 -4.5 C 3.976562 -5.488281 3.523438 -6.585938 3.203125 -7.796875 C 3.117188 -8.171875 2.960938 -8.359375 2.734375 -8.359375 C 2.523438 -8.359375 2.421875 -8.15625 2.421875 -7.75 L 2.421875 0 C 2.421875 0.375 2.550781 0.5625 2.8125 0.5625 C 2.988281 0.5625 3.175781 0.414062 3.375 0.125 L 4.9375 -2.125 C 5.28125 -1.800781 5.703125 -1.46875 6.203125 -1.125 C 6.710938 -0.78125 7.28125 -0.460938 7.90625 -0.171875 C 8.53125 0.117188 9.195312 0.359375 9.90625 0.546875 C 10.613281 0.734375 11.34375 0.828125 12.09375 0.828125 C 13.476562 0.828125 14.757812 0.570312 15.9375 0.0625 C 17.125 -0.4375 18.148438 -1.132812 19.015625 -2.03125 C 19.890625 -2.925781 20.578125 -3.988281 21.078125 -5.21875 C 21.585938 -6.445312 21.84375 -7.769531 21.84375 -9.1875 C 21.84375 -11.125 21.382812 -12.765625 20.46875 -14.109375 C 19.5625 -15.453125 18.125 -16.410156 16.15625 -16.984375 C 15.5 -17.179688 14.878906 -17.351562 14.296875 -17.5 C 13.722656 -17.644531 13.128906 -17.800781 12.515625 -17.96875 C 11.910156 -18.144531 11.273438 -18.34375 10.609375 -18.5625 C 9.953125 -18.78125 9.21875 -19.050781 8.40625 -19.375 C 7.507812 -19.71875 6.828125 -20.25 6.359375 -20.96875 C 5.898438 -21.6875 5.671875 -22.523438 5.671875 -23.484375 C 5.671875 -24.378906 5.859375 -25.164062 6.234375 -25.84375 C 6.609375 -26.519531 7.09375 -27.070312 7.6875 -27.5 C 8.28125 -27.9375 8.957031 -28.265625 9.71875 -28.484375 C 10.488281 -28.703125 11.265625 -28.8125 12.046875 -28.8125 C 13.234375 -28.8125 14.273438 -28.609375 15.171875 -28.203125 C 16.066406 -27.796875 16.816406 -27.257812 17.421875 -26.59375 C 18.023438 -25.9375 18.503906 -25.171875 18.859375 -24.296875 C 19.222656 -23.429688 19.460938 -22.539062 19.578125 -21.625 C 19.609375 -21.332031 19.738281 -21.1875 19.96875 -21.1875 C 20.175781 -21.1875 20.28125 -21.332031 20.28125 -21.625 L 20.28125 -29.328125 C 20.28125 -29.617188 20.191406 -29.765625 20.015625 -29.765625 C 19.867188 -29.765625 19.710938 -29.648438 19.546875 -29.421875 Z M 19.546875 -29.421875 "/></g></g></g><g fill="#000000" fill-opacity="1"><g transform="translate(235.597468, 191.324095)"><g><path d="M 22.875 -1.859375 C 22.789062 -2.148438 22.726562 -2.554688 22.6875 -3.078125 C 22.644531 -3.597656 22.613281 -4.160156 22.59375 -4.765625 C 22.582031 -5.367188 22.566406 -5.988281 22.546875 -6.625 C 22.535156 -7.257812 22.488281 -7.867188 22.40625 -8.453125 C 22.226562 -9.609375 21.9375 -10.5625 21.53125 -11.3125 C 21.125 -12.0625 20.628906 -12.671875 20.046875 -13.140625 C 19.472656 -13.617188 18.8125 -13.992188 18.0625 -14.265625 C 17.3125 -14.546875 16.503906 -14.800781 15.640625 -15.03125 C 17.890625 -15.4375 19.617188 -16.238281 20.828125 -17.4375 C 22.046875 -18.632812 22.65625 -20.144531 22.65625 -21.96875 C 22.65625 -23.09375 22.414062 -24.101562 21.9375 -25 C 21.46875 -25.894531 20.828125 -26.644531 20.015625 -27.25 C 19.203125 -27.851562 18.238281 -28.3125 17.125 -28.625 C 16.019531 -28.945312 14.847656 -29.109375 13.609375 -29.109375 L 1.390625 -29.109375 L 1.390625 -28.421875 L 5.109375 -28.421875 L 5.109375 -0.6875 L 1.390625 -0.6875 L 1.390625 0 L 13.046875 0 L 13.046875 -0.6875 L 9.3125 -0.6875 L 9.3125 -14.859375 L 12.90625 -14.859375 C 13.375 -14.859375 13.867188 -14.78125 14.390625 -14.625 C 14.910156 -14.46875 15.394531 -14.164062 15.84375 -13.71875 C 16.289062 -13.269531 16.675781 -12.644531 17 -11.84375 C 17.332031 -11.050781 17.570312 -10.035156 17.71875 -8.796875 C 17.800781 -8.046875 17.847656 -7.28125 17.859375 -6.5 C 17.878906 -5.71875 17.925781 -4.960938 18 -4.234375 C 18.070312 -3.515625 18.203125 -2.851562 18.390625 -2.25 C 18.578125 -1.644531 18.875 -1.125 19.28125 -0.6875 C 19.65625 -0.289062 20.09375 -0.0195312 20.59375 0.125 C 21.101562 0.269531 21.648438 0.34375 22.234375 0.34375 C 22.722656 0.34375 23.210938 0.289062 23.703125 0.1875 C 24.191406 0.09375 24.644531 -0.0234375 25.0625 -0.171875 C 25.476562 -0.316406 25.835938 -0.46875 26.140625 -0.625 C 26.453125 -0.78125 26.675781 -0.929688 26.8125 -1.078125 C 26.90625 -1.171875 26.953125 -1.257812 26.953125 -1.34375 C 26.953125 -1.425781 26.90625 -1.46875 26.8125 -1.46875 C 26.757812 -1.46875 26.675781 -1.441406 26.5625 -1.390625 C 25.976562 -0.984375 25.328125 -0.78125 24.609375 -0.78125 C 23.710938 -0.78125 23.132812 -1.140625 22.875 -1.859375 Z M 9.3125 -15.5625 L 9.3125 -28.421875 L 13.609375 -28.421875 C 16.898438 -28.421875 18.546875 -26.53125 18.546875 -22.75 L 18.546875 -21.1875 C 18.546875 -17.4375 16.898438 -15.5625 13.609375 -15.5625 Z M 9.3125 -15.5625 "/></g></g></g><g fill="#000000" fill-opacity="1"><g transform="translate(266.141487, 191.324095)"><g><path d="M 12.609375 -28.421875 L 12.609375 -29.109375 L 1.46875 -29.109375 L 1.46875 -28.421875 L 4.9375 -28.421875 L 4.9375 -0.6875 L 1.46875 -0.6875 L 1.46875 0 L 12.609375 0 L 12.609375 -0.6875 L 9.140625 -0.6875 L 9.140625 -28.421875 Z M 21.921875 -28.421875 L 9.453125 -15.9375 L 20.140625 -0.6875 L 16.375 -0.6875 L 16.375 0 L 28.640625 0 L 28.640625 -0.6875 L 25.171875 -0.6875 L 12.90625 -18.28125 L 23.046875 -28.421875 L 26.734375 -28.421875 L 26.734375 -29.109375 L 18.203125 -29.109375 L 18.203125 -28.421875 Z M 21.921875 -28.421875 "/></g></g></g><g fill="#000000" fill-opacity="1"><g transform="translate(82.714305, 230.240515)"><g><path d="M 0.03125 -0.03125 L 0.03125 -0.15625 C 0.03125 -0.175781 0.0390625 -0.1875 0.0625 -0.1875 L 0.15625 -0.1875 C 0.269531 -0.1875 0.382812 -0.1875 0.5 -0.1875 C 0.625 -0.195312 0.738281 -0.210938 0.84375 -0.234375 C 1.070312 -0.304688 1.1875 -0.472656 1.1875 -0.734375 L 1.1875 -5.109375 C 1.1875 -5.390625 1.023438 -5.566406 0.703125 -5.640625 C 0.609375 -5.660156 0.515625 -5.675781 0.421875 -5.6875 L 0.328125 -5.6875 C 0.304688 -5.6875 0.296875 -5.695312 0.296875 -5.71875 L 0.296875 -5.8125 C 0.296875 -5.84375 0.304688 -5.859375 0.328125 -5.859375 L 4.28125 -5.859375 C 4.332031 -5.859375 4.367188 -5.847656 4.390625 -5.828125 C 4.410156 -5.804688 4.421875 -5.765625 4.421875 -5.703125 L 4.5 -4.5 C 4.5 -4.476562 4.476562 -4.46875 4.4375 -4.46875 C 4.394531 -4.46875 4.363281 -4.476562 4.34375 -4.5 C 4.332031 -4.53125 4.3125 -4.628906 4.28125 -4.796875 C 4.257812 -4.972656 4.210938 -5.117188 4.140625 -5.234375 C 4.066406 -5.347656 3.945312 -5.421875 3.78125 -5.453125 L 2.046875 -5.453125 C 2.015625 -5.453125 2 -5.4375 2 -5.40625 L 2 -3.265625 C 2 -3.234375 2.007812 -3.21875 2.03125 -3.21875 L 3.46875 -3.21875 C 3.84375 -3.21875 4.03125 -3.429688 4.03125 -3.859375 C 4.03125 -3.878906 4.039062 -3.890625 4.0625 -3.890625 L 4.15625 -3.890625 C 4.175781 -3.890625 4.1875 -3.878906 4.1875 -3.859375 L 4.1875 -2.09375 C 4.1875 -2.0625 4.175781 -2.046875 4.15625 -2.046875 L 4.0625 -2.046875 C 4.039062 -2.046875 4.03125 -2.0625 4.03125 -2.09375 C 4.03125 -2.5 3.910156 -2.734375 3.671875 -2.796875 C 3.597656 -2.816406 3.523438 -2.828125 3.453125 -2.828125 L 2.03125 -2.828125 C 2.007812 -2.828125 2 -2.8125 2 -2.78125 L 2 -0.765625 C 2 -0.554688 2.09375 -0.4375 2.28125 -0.40625 C 2.332031 -0.394531 2.390625 -0.390625 2.453125 -0.390625 L 3.828125 -0.390625 C 4.117188 -0.390625 4.34375 -0.515625 4.5 -0.765625 C 4.613281 -0.953125 4.679688 -1.160156 4.703125 -1.390625 C 4.710938 -1.460938 4.753906 -1.5 4.828125 -1.5 C 4.859375 -1.5 4.875 -1.484375 4.875 -1.453125 L 4.75 -0.0625 C 4.726562 -0.0195312 4.707031 0 4.6875 0 L 0.0625 0 C 0.0390625 0 0.03125 -0.0078125 0.03125 -0.03125 Z M 0.03125 -0.03125 "/></g></g></g><g fill="#000000" fill-opacity="1"><g transform="translate(91.215874, 230.240515)"><g><path d="M 0.28125 0 C 0.257812 0 0.25 -0.0078125 0.25 -0.03125 L 0.25 -0.140625 C 0.25 -0.160156 0.265625 -0.171875 0.296875 -0.171875 L 0.390625 -0.171875 C 0.535156 -0.171875 0.640625 -0.179688 0.703125 -0.203125 C 0.898438 -0.304688 1 -0.582031 1 -1.03125 L 1 -5.34375 C 1 -5.53125 0.820312 -5.640625 0.46875 -5.671875 C 0.382812 -5.679688 0.328125 -5.6875 0.296875 -5.6875 C 0.265625 -5.6875 0.25 -5.695312 0.25 -5.71875 L 0.25 -5.8125 C 0.25 -5.84375 0.257812 -5.859375 0.28125 -5.859375 L 1.796875 -5.859375 L 5.734375 -1.5 C 5.753906 -1.488281 5.765625 -1.476562 5.765625 -1.46875 C 5.773438 -1.457031 5.785156 -1.453125 5.796875 -1.453125 C 5.804688 -1.453125 5.8125 -1.46875 5.8125 -1.5 L 5.8125 -4.359375 C 5.8125 -4.910156 5.765625 -5.269531 5.671875 -5.4375 C 5.585938 -5.601562 5.40625 -5.6875 5.125 -5.6875 L 4.921875 -5.6875 C 4.890625 -5.6875 4.875 -5.695312 4.875 -5.71875 L 4.875 -5.8125 C 4.875 -5.84375 4.890625 -5.859375 4.921875 -5.859375 L 7.078125 -5.859375 C 7.097656 -5.859375 7.109375 -5.84375 7.109375 -5.8125 L 7.109375 -5.71875 C 7.109375 -5.695312 7.066406 -5.6875 6.984375 -5.6875 C 6.898438 -5.6875 6.765625 -5.640625 6.578125 -5.546875 C 6.390625 -5.453125 6.296875 -5.335938 6.296875 -5.203125 L 6.296875 -0.125 C 6.296875 -0.0625 6.285156 -0.0195312 6.265625 0 C 6.253906 0.03125 6.21875 0.046875 6.15625 0.046875 C 6.09375 0.046875 6.046875 0.03125 6.015625 0 C 5.984375 -0.0195312 5.945312 -0.0507812 5.90625 -0.09375 L 1.625 -4.84375 C 1.601562 -4.863281 1.582031 -4.875 1.5625 -4.875 C 1.539062 -4.875 1.53125 -4.863281 1.53125 -4.84375 L 1.53125 -0.703125 C 1.53125 -0.441406 1.734375 -0.273438 2.140625 -0.203125 C 2.242188 -0.179688 2.320312 -0.171875 2.375 -0.171875 C 2.4375 -0.171875 2.46875 -0.160156 2.46875 -0.140625 L 2.46875 -0.03125 C 2.46875 -0.0078125 2.457031 0 2.4375 0 Z M 0.28125 0 "/></g></g></g><g fill="#000000" fill-opacity="1"><g transform="translate(101.722075, 230.240515)"><g><path d="M 6.46875 -2.578125 C 6.5 -2.578125 6.515625 -2.550781 6.515625 -2.5 C 6.515625 -2.457031 6.5 -2.429688 6.46875 -2.421875 C 6.394531 -2.390625 6.316406 -2.363281 6.234375 -2.34375 C 6.160156 -2.320312 6.09375 -2.289062 6.03125 -2.25 C 5.875 -2.164062 5.796875 -2.03125 5.796875 -1.84375 L 5.796875 -0.5 C 5.796875 -0.4375 5.648438 -0.351562 5.359375 -0.25 C 5.066406 -0.15625 4.832031 -0.0820312 4.65625 -0.03125 C 3.789062 0.175781 3.023438 0.15625 2.359375 -0.09375 C 1.585938 -0.394531 1.039062 -0.925781 0.71875 -1.6875 C 0.5625 -2.070312 0.484375 -2.453125 0.484375 -2.828125 C 0.484375 -3.203125 0.519531 -3.519531 0.59375 -3.78125 C 0.820312 -4.5625 1.296875 -5.164062 2.015625 -5.59375 C 2.492188 -5.875 2.992188 -6.015625 3.515625 -6.015625 C 4.035156 -6.015625 4.585938 -5.90625 5.171875 -5.6875 C 5.273438 -5.65625 5.335938 -5.640625 5.359375 -5.640625 L 5.40625 -5.640625 L 5.5625 -5.671875 L 5.671875 -5.671875 C 5.703125 -5.671875 5.71875 -5.65625 5.71875 -5.625 L 5.71875 -4.25 C 5.71875 -4.195312 5.6875 -4.171875 5.625 -4.171875 L 5.609375 -4.171875 C 5.554688 -4.171875 5.519531 -4.242188 5.5 -4.390625 C 5.5 -4.410156 5.492188 -4.425781 5.484375 -4.4375 C 5.210938 -5.3125 4.628906 -5.75 3.734375 -5.75 C 3.023438 -5.75 2.457031 -5.476562 2.03125 -4.9375 C 1.601562 -4.394531 1.390625 -3.75 1.390625 -3 C 1.390625 -2.257812 1.601562 -1.601562 2.03125 -1.03125 C 2.457031 -0.457031 3.046875 -0.171875 3.796875 -0.171875 C 4.179688 -0.171875 4.5 -0.234375 4.75 -0.359375 C 4.84375 -0.398438 4.914062 -0.457031 4.96875 -0.53125 L 4.96875 -1.671875 C 4.96875 -1.929688 4.894531 -2.117188 4.75 -2.234375 C 4.601562 -2.359375 4.332031 -2.421875 3.9375 -2.421875 C 3.90625 -2.421875 3.890625 -2.445312 3.890625 -2.5 C 3.890625 -2.550781 3.90625 -2.578125 3.9375 -2.578125 Z M 6.46875 -2.578125 "/></g></g></g><g fill="#000000" fill-opacity="1"><g transform="translate(111.705329, 230.240515)"><g><path d="M 1.046875 -5.1875 C 1.046875 -5.519531 0.851562 -5.6875 0.46875 -5.6875 C 0.40625 -5.6875 0.375 -5.695312 0.375 -5.71875 L 0.375 -5.8125 C 0.375 -5.84375 0.390625 -5.859375 0.421875 -5.859375 L 2.5 -5.859375 C 2.519531 -5.859375 2.53125 -5.84375 2.53125 -5.8125 L 2.53125 -5.71875 C 2.53125 -5.695312 2.46875 -5.6875 2.34375 -5.6875 C 2.21875 -5.6875 2.101562 -5.644531 2 -5.5625 C 1.90625 -5.488281 1.859375 -5.332031 1.859375 -5.09375 L 1.859375 -0.671875 C 1.859375 -0.335938 2.050781 -0.171875 2.4375 -0.171875 C 2.488281 -0.171875 2.515625 -0.160156 2.515625 -0.140625 L 2.515625 -0.03125 C 2.515625 -0.0078125 2.503906 0 2.484375 0 L 0.40625 0 C 0.382812 0 0.375 -0.0078125 0.375 -0.03125 L 0.375 -0.140625 C 0.375 -0.160156 0.429688 -0.171875 0.546875 -0.171875 C 0.671875 -0.171875 0.785156 -0.207031 0.890625 -0.28125 C 0.992188 -0.363281 1.046875 -0.523438 1.046875 -0.765625 Z M 1.046875 -5.1875 "/></g></g></g><g fill="#000000" fill-opacity="1"><g transform="translate(117.861934, 230.240515)"><g><path d="M 0.28125 0 C 0.257812 0 0.25 -0.0078125 0.25 -0.03125 L 0.25 -0.140625 C 0.25 -0.160156 0.265625 -0.171875 0.296875 -0.171875 L 0.390625 -0.171875 C 0.535156 -0.171875 0.640625 -0.179688 0.703125 -0.203125 C 0.898438 -0.304688 1 -0.582031 1 -1.03125 L 1 -5.34375 C 1 -5.53125 0.820312 -5.640625 0.46875 -5.671875 C 0.382812 -5.679688 0.328125 -5.6875 0.296875 -5.6875 C 0.265625 -5.6875 0.25 -5.695312 0.25 -5.71875 L 0.25 -5.8125 C 0.25 -5.84375 0.257812 -5.859375 0.28125 -5.859375 L 1.796875 -5.859375 L 5.734375 -1.5 C 5.753906 -1.488281 5.765625 -1.476562 5.765625 -1.46875 C 5.773438 -1.457031 5.785156 -1.453125 5.796875 -1.453125 C 5.804688 -1.453125 5.8125 -1.46875 5.8125 -1.5 L 5.8125 -4.359375 C 5.8125 -4.910156 5.765625 -5.269531 5.671875 -5.4375 C 5.585938 -5.601562 5.40625 -5.6875 5.125 -5.6875 L 4.921875 -5.6875 C 4.890625 -5.6875 4.875 -5.695312 4.875 -5.71875 L 4.875 -5.8125 C 4.875 -5.84375 4.890625 -5.859375 4.921875 -5.859375 L 7.078125 -5.859375 C 7.097656 -5.859375 7.109375 -5.84375 7.109375 -5.8125 L 7.109375 -5.71875 C 7.109375 -5.695312 7.066406 -5.6875 6.984375 -5.6875 C 6.898438 -5.6875 6.765625 -5.640625 6.578125 -5.546875 C 6.390625 -5.453125 6.296875 -5.335938 6.296875 -5.203125 L 6.296875 -0.125 C 6.296875 -0.0625 6.285156 -0.0195312 6.265625 0 C 6.253906 0.03125 6.21875 0.046875 6.15625 0.046875 C 6.09375 0.046875 6.046875 0.03125 6.015625 0 C 5.984375 -0.0195312 5.945312 -0.0507812 5.90625 -0.09375 L 1.625 -4.84375 C 1.601562 -4.863281 1.582031 -4.875 1.5625 -4.875 C 1.539062 -4.875 1.53125 -4.863281 1.53125 -4.84375 L 1.53125 -0.703125 C 1.53125 -0.441406 1.734375 -0.273438 2.140625 -0.203125 C 2.242188 -0.179688 2.320312 -0.171875 2.375 -0.171875 C 2.4375 -0.171875 2.46875 -0.160156 2.46875 -0.140625 L 2.46875 -0.03125 C 2.46875 -0.0078125 2.457031 0 2.4375 0 Z M 0.28125 0 "/></g></g></g><g fill="#000000" fill-opacity="1"><g transform="translate(128.368136, 230.240515)"><g><path d="M 0.03125 -0.03125 L 0.03125 -0.15625 C 0.03125 -0.175781 0.0390625 -0.1875 0.0625 -0.1875 L 0.15625 -0.1875 C 0.269531 -0.1875 0.382812 -0.1875 0.5 -0.1875 C 0.625 -0.195312 0.738281 -0.210938 0.84375 -0.234375 C 1.070312 -0.304688 1.1875 -0.472656 1.1875 -0.734375 L 1.1875 -5.109375 C 1.1875 -5.390625 1.023438 -5.566406 0.703125 -5.640625 C 0.609375 -5.660156 0.515625 -5.675781 0.421875 -5.6875 L 0.328125 -5.6875 C 0.304688 -5.6875 0.296875 -5.695312 0.296875 -5.71875 L 0.296875 -5.8125 C 0.296875 -5.84375 0.304688 -5.859375 0.328125 -5.859375 L 4.28125 -5.859375 C 4.332031 -5.859375 4.367188 -5.847656 4.390625 -5.828125 C 4.410156 -5.804688 4.421875 -5.765625 4.421875 -5.703125 L 4.5 -4.5 C 4.5 -4.476562 4.476562 -4.46875 4.4375 -4.46875 C 4.394531 -4.46875 4.363281 -4.476562 4.34375 -4.5 C 4.332031 -4.53125 4.3125 -4.628906 4.28125 -4.796875 C 4.257812 -4.972656 4.210938 -5.117188 4.140625 -5.234375 C 4.066406 -5.347656 3.945312 -5.421875 3.78125 -5.453125 L 2.046875 -5.453125 C 2.015625 -5.453125 2 -5.4375 2 -5.40625 L 2 -3.265625 C 2 -3.234375 2.007812 -3.21875 2.03125 -3.21875 L 3.46875 -3.21875 C 3.84375 -3.21875 4.03125 -3.429688 4.03125 -3.859375 C 4.03125 -3.878906 4.039062 -3.890625 4.0625 -3.890625 L 4.15625 -3.890625 C 4.175781 -3.890625 4.1875 -3.878906 4.1875 -3.859375 L 4.1875 -2.09375 C 4.1875 -2.0625 4.175781 -2.046875 4.15625 -2.046875 L 4.0625 -2.046875 C 4.039062 -2.046875 4.03125 -2.0625 4.03125 -2.09375 C 4.03125 -2.5 3.910156 -2.734375 3.671875 -2.796875 C 3.597656 -2.816406 3.523438 -2.828125 3.453125 -2.828125 L 2.03125 -2.828125 C 2.007812 -2.828125 2 -2.8125 2 -2.78125 L 2 -0.765625 C 2 -0.554688 2.09375 -0.4375 2.28125 -0.40625 C 2.332031 -0.394531 2.390625 -0.390625 2.453125 -0.390625 L 3.828125 -0.390625 C 4.117188 -0.390625 4.34375 -0.515625 4.5 -0.765625 C 4.613281 -0.953125 4.679688 -1.160156 4.703125 -1.390625 C 4.710938 -1.460938 4.753906 -1.5 4.828125 -1.5 C 4.859375 -1.5 4.875 -1.484375 4.875 -1.453125 L 4.75 -0.0625 C 4.726562 -0.0195312 4.707031 0 4.6875 0 L 0.0625 0 C 0.0390625 0 0.03125 -0.0078125 0.03125 -0.03125 Z M 0.03125 -0.03125 "/></g></g></g><g fill="#000000" fill-opacity="1"><g transform="translate(136.869705, 230.240515)"><g><path d="M 0.03125 -0.03125 L 0.03125 -0.15625 C 0.03125 -0.175781 0.0390625 -0.1875 0.0625 -0.1875 L 0.15625 -0.1875 C 0.269531 -0.1875 0.382812 -0.1875 0.5 -0.1875 C 0.625 -0.195312 0.738281 -0.210938 0.84375 -0.234375 C 1.070312 -0.304688 1.1875 -0.472656 1.1875 -0.734375 L 1.1875 -5.109375 C 1.1875 -5.390625 1.023438 -5.566406 0.703125 -5.640625 C 0.609375 -5.660156 0.515625 -5.675781 0.421875 -5.6875 L 0.328125 -5.6875 C 0.304688 -5.6875 0.296875 -5.695312 0.296875 -5.71875 L 0.296875 -5.8125 C 0.296875 -5.84375 0.304688 -5.859375 0.328125 -5.859375 L 4.28125 -5.859375 C 4.332031 -5.859375 4.367188 -5.847656 4.390625 -5.828125 C 4.410156 -5.804688 4.421875 -5.765625 4.421875 -5.703125 L 4.5 -4.5 C 4.5 -4.476562 4.476562 -4.46875 4.4375 -4.46875 C 4.394531 -4.46875 4.363281 -4.476562 4.34375 -4.5 C 4.332031 -4.53125 4.3125 -4.628906 4.28125 -4.796875 C 4.257812 -4.972656 4.210938 -5.117188 4.140625 -5.234375 C 4.066406 -5.347656 3.945312 -5.421875 3.78125 -5.453125 L 2.046875 -5.453125 C 2.015625 -5.453125 2 -5.4375 2 -5.40625 L 2 -3.265625 C 2 -3.234375 2.007812 -3.21875 2.03125 -3.21875 L 3.46875 -3.21875 C 3.84375 -3.21875 4.03125 -3.429688 4.03125 -3.859375 C 4.03125 -3.878906 4.039062 -3.890625 4.0625 -3.890625 L 4.15625 -3.890625 C 4.175781 -3.890625 4.1875 -3.878906 4.1875 -3.859375 L 4.1875 -2.09375 C 4.1875 -2.0625 4.175781 -2.046875 4.15625 -2.046875 L 4.0625 -2.046875 C 4.039062 -2.046875 4.03125 -2.0625 4.03125 -2.09375 C 4.03125 -2.5 3.910156 -2.734375 3.671875 -2.796875 C 3.597656 -2.816406 3.523438 -2.828125 3.453125 -2.828125 L 2.03125 -2.828125 C 2.007812 -2.828125 2 -2.8125 2 -2.78125 L 2 -0.765625 C 2 -0.554688 2.09375 -0.4375 2.28125 -0.40625 C 2.332031 -0.394531 2.390625 -0.390625 2.453125 -0.390625 L 3.828125 -0.390625 C 4.117188 -0.390625 4.34375 -0.515625 4.5 -0.765625 C 4.613281 -0.953125 4.679688 -1.160156 4.703125 -1.390625 C 4.710938 -1.460938 4.753906 -1.5 4.828125 -1.5 C 4.859375 -1.5 4.875 -1.484375 4.875 -1.453125 L 4.75 -0.0625 C 4.726562 -0.0195312 4.707031 0 4.6875 0 L 0.0625 0 C 0.0390625 0 0.03125 -0.0078125 0.03125 -0.03125 Z M 0.03125 -0.03125 "/></g></g></g><g fill="#000000" fill-opacity="1"><g transform="translate(145.371274, 230.240515)"><g><path d="M 0.21875 0 C 0.195312 0 0.1875 -0.0234375 0.1875 -0.078125 L 0.1875 -0.140625 C 0.1875 -0.160156 0.195312 -0.171875 0.21875 -0.171875 C 0.226562 -0.171875 0.25 -0.171875 0.28125 -0.171875 C 0.320312 -0.179688 0.363281 -0.1875 0.40625 -0.1875 C 0.445312 -0.195312 0.484375 -0.203125 0.515625 -0.203125 C 0.546875 -0.210938 0.566406 -0.21875 0.578125 -0.21875 C 0.867188 -0.28125 1.015625 -0.441406 1.015625 -0.703125 L 1.015625 -5.09375 C 1.015625 -5.332031 0.914062 -5.5 0.71875 -5.59375 C 0.601562 -5.65625 0.484375 -5.6875 0.359375 -5.6875 L 0.203125 -5.6875 C 0.179688 -5.6875 0.171875 -5.695312 0.171875 -5.71875 L 0.171875 -5.8125 C 0.171875 -5.84375 0.1875 -5.859375 0.21875 -5.859375 L 2.5 -5.921875 L 2.90625 -5.921875 C 3.394531 -5.878906 3.804688 -5.695312 4.140625 -5.375 C 4.472656 -5.050781 4.640625 -4.65625 4.640625 -4.1875 C 4.640625 -3.71875 4.441406 -3.351562 4.046875 -3.09375 C 3.929688 -3.007812 3.800781 -2.9375 3.65625 -2.875 L 4.921875 -0.8125 C 5.128906 -0.457031 5.421875 -0.207031 5.796875 -0.0625 C 5.828125 -0.0507812 5.84375 -0.03125 5.84375 0 C 5.84375 0.0703125 5.796875 0.109375 5.703125 0.109375 C 5.078125 0.109375 4.582031 -0.128906 4.21875 -0.609375 C 4.132812 -0.710938 4.050781 -0.828125 3.96875 -0.953125 L 2.90625 -2.640625 L 1.90625 -2.6875 L 1.875 -2.6875 C 1.832031 -2.6875 1.8125 -2.664062 1.8125 -2.625 L 1.8125 -0.71875 C 1.8125 -0.5625 1.851562 -0.445312 1.9375 -0.375 C 2.03125 -0.300781 2.179688 -0.25 2.390625 -0.21875 C 2.441406 -0.21875 2.507812 -0.207031 2.59375 -0.1875 C 2.675781 -0.175781 2.726562 -0.171875 2.75 -0.171875 C 2.78125 -0.171875 2.796875 -0.160156 2.796875 -0.140625 L 2.796875 -0.03125 C 2.796875 -0.0078125 2.785156 0 2.765625 0 Z M 2.15625 -5.6875 C 2.125 -5.6875 2.085938 -5.6875 2.046875 -5.6875 C 2.015625 -5.6875 1.96875 -5.6875 1.90625 -5.6875 C 1.84375 -5.6875 1.8125 -5.664062 1.8125 -5.625 L 1.8125 -3.109375 L 1.828125 -2.984375 C 1.835938 -2.921875 1.863281 -2.890625 1.90625 -2.890625 L 2.328125 -2.859375 C 3.109375 -2.859375 3.578125 -3.132812 3.734375 -3.6875 C 3.785156 -3.863281 3.8125 -4.066406 3.8125 -4.296875 C 3.8125 -4.734375 3.675781 -5.078125 3.40625 -5.328125 C 3.132812 -5.578125 2.785156 -5.703125 2.359375 -5.703125 C 2.316406 -5.703125 2.28125 -5.703125 2.25 -5.703125 C 2.21875 -5.703125 2.1875 -5.695312 2.15625 -5.6875 Z M 2.15625 -5.6875 "/></g></g></g><g fill="#000000" fill-opacity="1"><g transform="translate(154.516151, 230.240515)"><g><path d="M 1.046875 -5.1875 C 1.046875 -5.519531 0.851562 -5.6875 0.46875 -5.6875 C 0.40625 -5.6875 0.375 -5.695312 0.375 -5.71875 L 0.375 -5.8125 C 0.375 -5.84375 0.390625 -5.859375 0.421875 -5.859375 L 2.5 -5.859375 C 2.519531 -5.859375 2.53125 -5.84375 2.53125 -5.8125 L 2.53125 -5.71875 C 2.53125 -5.695312 2.46875 -5.6875 2.34375 -5.6875 C 2.21875 -5.6875 2.101562 -5.644531 2 -5.5625 C 1.90625 -5.488281 1.859375 -5.332031 1.859375 -5.09375 L 1.859375 -0.671875 C 1.859375 -0.335938 2.050781 -0.171875 2.4375 -0.171875 C 2.488281 -0.171875 2.515625 -0.160156 2.515625 -0.140625 L 2.515625 -0.03125 C 2.515625 -0.0078125 2.503906 0 2.484375 0 L 0.40625 0 C 0.382812 0 0.375 -0.0078125 0.375 -0.03125 L 0.375 -0.140625 C 0.375 -0.160156 0.429688 -0.171875 0.546875 -0.171875 C 0.671875 -0.171875 0.785156 -0.207031 0.890625 -0.28125 C 0.992188 -0.363281 1.046875 -0.523438 1.046875 -0.765625 Z M 1.046875 -5.1875 "/></g></g></g><g fill="#000000" fill-opacity="1"><g transform="translate(160.672757, 230.240515)"><g><path d="M 0.28125 0 C 0.257812 0 0.25 -0.0078125 0.25 -0.03125 L 0.25 -0.140625 C 0.25 -0.160156 0.265625 -0.171875 0.296875 -0.171875 L 0.390625 -0.171875 C 0.535156 -0.171875 0.640625 -0.179688 0.703125 -0.203125 C 0.898438 -0.304688 1 -0.582031 1 -1.03125 L 1 -5.34375 C 1 -5.53125 0.820312 -5.640625 0.46875 -5.671875 C 0.382812 -5.679688 0.328125 -5.6875 0.296875 -5.6875 C 0.265625 -5.6875 0.25 -5.695312 0.25 -5.71875 L 0.25 -5.8125 C 0.25 -5.84375 0.257812 -5.859375 0.28125 -5.859375 L 1.796875 -5.859375 L 5.734375 -1.5 C 5.753906 -1.488281 5.765625 -1.476562 5.765625 -1.46875 C 5.773438 -1.457031 5.785156 -1.453125 5.796875 -1.453125 C 5.804688 -1.453125 5.8125 -1.46875 5.8125 -1.5 L 5.8125 -4.359375 C 5.8125 -4.910156 5.765625 -5.269531 5.671875 -5.4375 C 5.585938 -5.601562 5.40625 -5.6875 5.125 -5.6875 L 4.921875 -5.6875 C 4.890625 -5.6875 4.875 -5.695312 4.875 -5.71875 L 4.875 -5.8125 C 4.875 -5.84375 4.890625 -5.859375 4.921875 -5.859375 L 7.078125 -5.859375 C 7.097656 -5.859375 7.109375 -5.84375 7.109375 -5.8125 L 7.109375 -5.71875 C 7.109375 -5.695312 7.066406 -5.6875 6.984375 -5.6875 C 6.898438 -5.6875 6.765625 -5.640625 6.578125 -5.546875 C 6.390625 -5.453125 6.296875 -5.335938 6.296875 -5.203125 L 6.296875 -0.125 C 6.296875 -0.0625 6.285156 -0.0195312 6.265625 0 C 6.253906 0.03125 6.21875 0.046875 6.15625 0.046875 C 6.09375 0.046875 6.046875 0.03125 6.015625 0 C 5.984375 -0.0195312 5.945312 -0.0507812 5.90625 -0.09375 L 1.625 -4.84375 C 1.601562 -4.863281 1.582031 -4.875 1.5625 -4.875 C 1.539062 -4.875 1.53125 -4.863281 1.53125 -4.84375 L 1.53125 -0.703125 C 1.53125 -0.441406 1.734375 -0.273438 2.140625 -0.203125 C 2.242188 -0.179688 2.320312 -0.171875 2.375 -0.171875 C 2.4375 -0.171875 2.46875 -0.160156 2.46875 -0.140625 L 2.46875 -0.03125 C 2.46875 -0.0078125 2.457031 0 2.4375 0 Z M 0.28125 0 "/></g></g></g><g fill="#000000" fill-opacity="1"><g transform="translate(171.178958, 230.240515)"><g><path d="M 6.46875 -2.578125 C 6.5 -2.578125 6.515625 -2.550781 6.515625 -2.5 C 6.515625 -2.457031 6.5 -2.429688 6.46875 -2.421875 C 6.394531 -2.390625 6.316406 -2.363281 6.234375 -2.34375 C 6.160156 -2.320312 6.09375 -2.289062 6.03125 -2.25 C 5.875 -2.164062 5.796875 -2.03125 5.796875 -1.84375 L 5.796875 -0.5 C 5.796875 -0.4375 5.648438 -0.351562 5.359375 -0.25 C 5.066406 -0.15625 4.832031 -0.0820312 4.65625 -0.03125 C 3.789062 0.175781 3.023438 0.15625 2.359375 -0.09375 C 1.585938 -0.394531 1.039062 -0.925781 0.71875 -1.6875 C 0.5625 -2.070312 0.484375 -2.453125 0.484375 -2.828125 C 0.484375 -3.203125 0.519531 -3.519531 0.59375 -3.78125 C 0.820312 -4.5625 1.296875 -5.164062 2.015625 -5.59375 C 2.492188 -5.875 2.992188 -6.015625 3.515625 -6.015625 C 4.035156 -6.015625 4.585938 -5.90625 5.171875 -5.6875 C 5.273438 -5.65625 5.335938 -5.640625 5.359375 -5.640625 L 5.40625 -5.640625 L 5.5625 -5.671875 L 5.671875 -5.671875 C 5.703125 -5.671875 5.71875 -5.65625 5.71875 -5.625 L 5.71875 -4.25 C 5.71875 -4.195312 5.6875 -4.171875 5.625 -4.171875 L 5.609375 -4.171875 C 5.554688 -4.171875 5.519531 -4.242188 5.5 -4.390625 C 5.5 -4.410156 5.492188 -4.425781 5.484375 -4.4375 C 5.210938 -5.3125 4.628906 -5.75 3.734375 -5.75 C 3.023438 -5.75 2.457031 -5.476562 2.03125 -4.9375 C 1.601562 -4.394531 1.390625 -3.75 1.390625 -3 C 1.390625 -2.257812 1.601562 -1.601562 2.03125 -1.03125 C 2.457031 -0.457031 3.046875 -0.171875 3.796875 -0.171875 C 4.179688 -0.171875 4.5 -0.234375 4.75 -0.359375 C 4.84375 -0.398438 4.914062 -0.457031 4.96875 -0.53125 L 4.96875 -1.671875 C 4.96875 -1.929688 4.894531 -2.117188 4.75 -2.234375 C 4.601562 -2.359375 4.332031 -2.421875 3.9375 -2.421875 C 3.90625 -2.421875 3.890625 -2.445312 3.890625 -2.5 C 3.890625 -2.550781 3.90625 -2.578125 3.9375 -2.578125 Z M 6.46875 -2.578125 "/></g></g></g><g fill="#000000" fill-opacity="1"><g transform="translate(181.162207, 230.240515)"><g/></g></g><g fill="#000000" fill-opacity="1"><g transform="translate(186.7004, 230.240515)"><g><path d="M 5.796875 -0.40625 C 5.816406 -0.40625 5.828125 -0.378906 5.828125 -0.328125 C 5.828125 -0.273438 5.820312 -0.242188 5.8125 -0.234375 C 5.425781 0.00390625 5.097656 0.125 4.828125 0.125 C 4.566406 0.125 4.335938 0 4.140625 -0.25 C 4.046875 -0.363281 3.953125 -0.488281 3.859375 -0.625 C 3.773438 -0.769531 3.703125 -0.878906 3.640625 -0.953125 C 2.867188 -0.242188 2.179688 0.109375 1.578125 0.109375 C 1.171875 0.109375 0.820312 -0.0507812 0.53125 -0.375 C 0.238281 -0.707031 0.09375 -1.082031 0.09375 -1.5 C 0.09375 -2.082031 0.410156 -2.550781 1.046875 -2.90625 C 1.234375 -3.019531 1.441406 -3.117188 1.671875 -3.203125 C 1.347656 -3.515625 1.148438 -3.800781 1.078125 -4.0625 C 1.046875 -4.164062 1.03125 -4.289062 1.03125 -4.4375 C 1.03125 -4.738281 1.15625 -4.976562 1.40625 -5.15625 C 1.65625 -5.34375 1.9375 -5.4375 2.25 -5.4375 C 2.570312 -5.4375 2.847656 -5.34375 3.078125 -5.15625 C 3.316406 -4.976562 3.4375 -4.738281 3.4375 -4.4375 C 3.4375 -4.082031 3.171875 -3.742188 2.640625 -3.421875 C 2.585938 -3.390625 2.554688 -3.367188 2.546875 -3.359375 C 2.546875 -3.359375 2.546875 -3.347656 2.546875 -3.328125 C 2.546875 -3.304688 2.5625 -3.28125 2.59375 -3.25 C 2.625 -3.226562 2.65625 -3.195312 2.6875 -3.15625 C 2.726562 -3.125 2.789062 -3.070312 2.875 -3 C 2.957031 -2.925781 3.035156 -2.859375 3.109375 -2.796875 C 3.179688 -2.734375 3.335938 -2.550781 3.578125 -2.25 C 3.816406 -1.945312 3.941406 -1.796875 3.953125 -1.796875 C 3.984375 -1.796875 4.003906 -1.804688 4.015625 -1.828125 L 4.96875 -3.265625 C 5.039062 -3.367188 5.078125 -3.457031 5.078125 -3.53125 C 5.078125 -3.601562 5.050781 -3.65625 5 -3.6875 C 4.957031 -3.71875 4.90625 -3.738281 4.84375 -3.75 C 4.789062 -3.757812 4.738281 -3.769531 4.6875 -3.78125 C 4.644531 -3.800781 4.625 -3.832031 4.625 -3.875 C 4.625 -3.925781 4.640625 -3.953125 4.671875 -3.953125 L 6.1875 -3.953125 C 6.195312 -3.929688 6.203125 -3.898438 6.203125 -3.859375 C 6.203125 -3.816406 6.195312 -3.789062 6.1875 -3.78125 C 6.164062 -3.769531 6.070312 -3.757812 5.90625 -3.75 C 5.632812 -3.71875 5.445312 -3.617188 5.34375 -3.453125 L 4.125 -1.515625 L 4.640625 -0.625 C 4.796875 -0.351562 4.984375 -0.21875 5.203125 -0.21875 C 5.328125 -0.21875 5.445312 -0.242188 5.5625 -0.296875 C 5.675781 -0.347656 5.753906 -0.382812 5.796875 -0.40625 Z M 1.921875 -0.375 C 2.203125 -0.375 2.460938 -0.441406 2.703125 -0.578125 C 2.941406 -0.710938 3.179688 -0.878906 3.421875 -1.078125 C 3.472656 -1.117188 3.492188 -1.148438 3.484375 -1.171875 C 3.484375 -1.203125 3.484375 -1.222656 3.484375 -1.234375 C 3.484375 -1.234375 3.484375 -1.238281 3.484375 -1.25 C 3.109375 -1.894531 2.648438 -2.4375 2.109375 -2.875 C 2.078125 -2.894531 2.039062 -2.921875 2 -2.953125 C 1.957031 -2.992188 1.914062 -3.015625 1.875 -3.015625 C 1.832031 -3.015625 1.753906 -2.976562 1.640625 -2.90625 C 1.398438 -2.769531 1.207031 -2.578125 1.0625 -2.328125 C 0.914062 -2.078125 0.84375 -1.847656 0.84375 -1.640625 C 0.84375 -1.273438 0.953125 -0.972656 1.171875 -0.734375 C 1.398438 -0.492188 1.648438 -0.375 1.921875 -0.375 Z M 2.875 -4.421875 C 2.875 -4.929688 2.660156 -5.1875 2.234375 -5.1875 C 1.953125 -5.1875 1.769531 -5.0625 1.6875 -4.8125 C 1.65625 -4.738281 1.640625 -4.625 1.640625 -4.46875 C 1.640625 -4.320312 1.695312 -4.15625 1.8125 -3.96875 C 1.925781 -3.789062 2.082031 -3.640625 2.28125 -3.515625 C 2.445312 -3.546875 2.585938 -3.65625 2.703125 -3.84375 C 2.816406 -4.039062 2.875 -4.234375 2.875 -4.421875 Z M 2.875 -4.421875 "/></g></g></g><g fill="#000000" fill-opacity="1"><g transform="translate(196.272761, 230.240515)"><g/></g></g><g fill="#000000" fill-opacity="1"><g transform="translate(201.810955, 230.240515)"><g><path d="M 3.5625 -3.359375 C 3.9375 -3.359375 4.125 -3.539062 4.125 -3.90625 C 4.125 -3.925781 4.132812 -3.9375 4.15625 -3.9375 L 4.25 -3.9375 C 4.269531 -3.9375 4.28125 -3.925781 4.28125 -3.90625 L 4.28125 -2.359375 C 4.28125 -2.335938 4.269531 -2.328125 4.25 -2.328125 L 4.15625 -2.328125 C 4.132812 -2.328125 4.125 -2.335938 4.125 -2.359375 C 4.125 -2.609375 4.050781 -2.785156 3.90625 -2.890625 C 3.820312 -2.941406 3.707031 -2.96875 3.5625 -2.96875 L 1.9375 -2.96875 C 1.863281 -2.96875 1.828125 -2.925781 1.828125 -2.84375 L 1.828125 -0.71875 C 1.828125 -0.53125 1.941406 -0.390625 2.171875 -0.296875 C 2.398438 -0.210938 2.539062 -0.171875 2.59375 -0.171875 C 2.65625 -0.171875 2.6875 -0.160156 2.6875 -0.140625 L 2.6875 -0.03125 C 2.6875 -0.0078125 2.675781 0 2.65625 0 L 0.390625 0 C 0.367188 0 0.359375 -0.0078125 0.359375 -0.03125 L 0.359375 -0.140625 C 0.359375 -0.160156 0.378906 -0.171875 0.421875 -0.171875 C 0.472656 -0.171875 0.546875 -0.191406 0.640625 -0.234375 C 0.742188 -0.273438 0.832031 -0.335938 0.90625 -0.421875 C 0.988281 -0.515625 1.03125 -0.625 1.03125 -0.75 L 1.03125 -5.234375 C 1.03125 -5.410156 0.929688 -5.535156 0.734375 -5.609375 C 0.628906 -5.660156 0.519531 -5.6875 0.40625 -5.6875 L 0.390625 -5.6875 C 0.367188 -5.6875 0.359375 -5.695312 0.359375 -5.71875 L 0.359375 -5.8125 C 0.359375 -5.84375 0.367188 -5.859375 0.390625 -5.859375 L 4.3125 -5.859375 C 4.34375 -5.847656 4.363281 -5.835938 4.375 -5.828125 C 4.394531 -5.816406 4.40625 -5.789062 4.40625 -5.75 L 4.40625 -4.75 C 4.40625 -4.71875 4.398438 -4.695312 4.390625 -4.6875 C 4.378906 -4.675781 4.363281 -4.671875 4.34375 -4.671875 L 4.296875 -4.671875 C 4.285156 -4.679688 4.265625 -4.757812 4.234375 -4.90625 C 4.203125 -5.050781 4.15625 -5.164062 4.09375 -5.25 C 3.976562 -5.363281 3.847656 -5.429688 3.703125 -5.453125 C 3.640625 -5.453125 3.566406 -5.453125 3.484375 -5.453125 L 1.921875 -5.453125 C 1.859375 -5.453125 1.828125 -5.425781 1.828125 -5.375 L 1.828125 -3.453125 C 1.828125 -3.390625 1.863281 -3.359375 1.9375 -3.359375 Z M 3.5625 -3.359375 "/></g></g></g><g fill="#000000" fill-opacity="1"><g transform="translate(209.909932, 230.240515)"><g><path d="M 2.203125 -0.03125 C 2.203125 -0.0078125 2.191406 0 2.171875 0 L 0.046875 0 C 0.0234375 0 0.015625 -0.0078125 0.015625 -0.03125 L 0.015625 -0.140625 C 0.015625 -0.160156 0.0351562 -0.171875 0.078125 -0.171875 C 0.453125 -0.179688 0.707031 -0.378906 0.84375 -0.765625 L 2.53125 -5.671875 C 2.539062 -5.679688 2.546875 -5.6875 2.546875 -5.6875 L 2.5 -5.828125 C 2.5 -5.847656 2.503906 -5.859375 2.515625 -5.859375 L 3.34375 -5.859375 C 3.34375 -5.847656 3.347656 -5.84375 3.359375 -5.84375 C 3.367188 -5.84375 3.378906 -5.832031 3.390625 -5.8125 L 5.140625 -0.890625 C 5.179688 -0.816406 5.210938 -0.75 5.234375 -0.6875 C 5.253906 -0.625 5.28125 -0.566406 5.3125 -0.515625 C 5.382812 -0.410156 5.492188 -0.328125 5.640625 -0.265625 C 5.765625 -0.203125 5.882812 -0.171875 6 -0.171875 C 6.019531 -0.171875 6.03125 -0.15625 6.03125 -0.125 L 6.03125 -0.03125 C 6.03125 -0.0078125 6.019531 0 6 0 L 3.453125 0 C 3.429688 0 3.421875 -0.0078125 3.421875 -0.03125 L 3.421875 -0.140625 C 3.421875 -0.160156 3.472656 -0.171875 3.578125 -0.171875 C 3.679688 -0.179688 3.765625 -0.1875 3.828125 -0.1875 C 4.210938 -0.226562 4.40625 -0.359375 4.40625 -0.578125 C 4.40625 -0.597656 4.398438 -0.617188 4.390625 -0.640625 L 3.765625 -2.40625 C 3.765625 -2.414062 3.757812 -2.425781 3.75 -2.4375 C 3.71875 -2.53125 3.660156 -2.578125 3.578125 -2.578125 L 2.109375 -2.578125 C 2.023438 -2.578125 1.957031 -2.535156 1.90625 -2.453125 C 1.894531 -2.429688 1.890625 -2.421875 1.890625 -2.421875 L 1.28125 -0.59375 L 1.28125 -0.5625 C 1.28125 -0.488281 1.316406 -0.421875 1.390625 -0.359375 C 1.554688 -0.234375 1.78125 -0.171875 2.0625 -0.171875 L 2.171875 -0.171875 C 2.191406 -0.171875 2.203125 -0.160156 2.203125 -0.140625 Z M 3.4375 -3.046875 C 3.488281 -3.046875 3.515625 -3.066406 3.515625 -3.109375 C 3.515625 -3.128906 3.507812 -3.15625 3.5 -3.1875 L 2.875 -4.890625 C 2.84375 -4.960938 2.820312 -5 2.8125 -5 C 2.800781 -5 2.78125 -4.957031 2.75 -4.875 L 2.171875 -3.1875 C 2.160156 -3.15625 2.15625 -3.125 2.15625 -3.09375 C 2.15625 -3.0625 2.175781 -3.046875 2.21875 -3.046875 Z M 3.4375 -3.046875 "/></g></g></g><g fill="#000000" fill-opacity="1"><g transform="translate(219.212529, 230.240515)"><g><path d="M 0.078125 0 C 0.0546875 0 0.046875 -0.0078125 0.046875 -0.03125 L 0.046875 -0.140625 C 0.046875 -0.160156 0.0625 -0.171875 0.09375 -0.171875 C 0.226562 -0.171875 0.375 -0.179688 0.53125 -0.203125 C 1.039062 -0.296875 1.296875 -0.472656 1.296875 -0.734375 L 1.296875 -5.109375 C 1.265625 -5.460938 1.101562 -5.65625 0.8125 -5.6875 C 0.71875 -5.695312 0.617188 -5.703125 0.515625 -5.703125 L 0.28125 -5.703125 C 0.25 -5.703125 0.234375 -5.710938 0.234375 -5.734375 L 0.234375 -5.84375 C 0.234375 -5.863281 0.25 -5.875 0.28125 -5.875 L 1.171875 -5.875 L 2.640625 -5.921875 C 4.222656 -5.921875 5.015625 -5.457031 5.015625 -4.53125 C 5.015625 -4.132812 4.8125 -3.800781 4.40625 -3.53125 C 4.34375 -3.488281 4.285156 -3.457031 4.234375 -3.4375 C 4.191406 -3.425781 4.171875 -3.414062 4.171875 -3.40625 C 4.535156 -3.207031 4.820312 -2.976562 5.03125 -2.71875 C 5.238281 -2.46875 5.34375 -2.164062 5.34375 -1.8125 C 5.34375 -1.050781 4.984375 -0.523438 4.265625 -0.234375 C 3.898438 -0.078125 3.503906 0 3.078125 0 Z M 2.171875 -3.234375 C 2.140625 -3.234375 2.125 -3.21875 2.125 -3.1875 L 2.125 -0.921875 C 2.125 -0.722656 2.210938 -0.5625 2.390625 -0.4375 C 2.578125 -0.320312 2.78125 -0.265625 3 -0.265625 C 3.40625 -0.265625 3.75 -0.410156 4.03125 -0.703125 C 4.320312 -0.992188 4.46875 -1.351562 4.46875 -1.78125 C 4.46875 -2.207031 4.3125 -2.554688 4 -2.828125 C 3.695312 -3.097656 3.304688 -3.234375 2.828125 -3.234375 Z M 2.109375 -3.578125 C 2.109375 -3.523438 2.140625 -3.5 2.203125 -3.5 L 3.234375 -3.5 C 3.492188 -3.5 3.710938 -3.59375 3.890625 -3.78125 C 4.078125 -3.976562 4.171875 -4.203125 4.171875 -4.453125 C 4.171875 -4.878906 4.046875 -5.191406 3.796875 -5.390625 C 3.554688 -5.585938 3.226562 -5.6875 2.8125 -5.6875 C 2.6875 -5.675781 2.597656 -5.671875 2.546875 -5.671875 C 2.503906 -5.671875 2.457031 -5.671875 2.40625 -5.671875 C 2.351562 -5.671875 2.300781 -5.664062 2.25 -5.65625 C 2.195312 -5.65625 2.160156 -5.640625 2.140625 -5.609375 C 2.117188 -5.578125 2.109375 -5.53125 2.109375 -5.46875 Z M 2.109375 -3.578125 "/></g></g></g><g fill="#000000" fill-opacity="1"><g transform="translate(228.245352, 230.240515)"><g><path d="M 0.21875 0 C 0.195312 0 0.1875 -0.0234375 0.1875 -0.078125 L 0.1875 -0.140625 C 0.1875 -0.160156 0.195312 -0.171875 0.21875 -0.171875 C 0.226562 -0.171875 0.25 -0.171875 0.28125 -0.171875 C 0.320312 -0.179688 0.363281 -0.1875 0.40625 -0.1875 C 0.445312 -0.195312 0.484375 -0.203125 0.515625 -0.203125 C 0.546875 -0.210938 0.566406 -0.21875 0.578125 -0.21875 C 0.867188 -0.28125 1.015625 -0.441406 1.015625 -0.703125 L 1.015625 -5.09375 C 1.015625 -5.332031 0.914062 -5.5 0.71875 -5.59375 C 0.601562 -5.65625 0.484375 -5.6875 0.359375 -5.6875 L 0.203125 -5.6875 C 0.179688 -5.6875 0.171875 -5.695312 0.171875 -5.71875 L 0.171875 -5.8125 C 0.171875 -5.84375 0.1875 -5.859375 0.21875 -5.859375 L 2.5 -5.921875 L 2.90625 -5.921875 C 3.394531 -5.878906 3.804688 -5.695312 4.140625 -5.375 C 4.472656 -5.050781 4.640625 -4.65625 4.640625 -4.1875 C 4.640625 -3.71875 4.441406 -3.351562 4.046875 -3.09375 C 3.929688 -3.007812 3.800781 -2.9375 3.65625 -2.875 L 4.921875 -0.8125 C 5.128906 -0.457031 5.421875 -0.207031 5.796875 -0.0625 C 5.828125 -0.0507812 5.84375 -0.03125 5.84375 0 C 5.84375 0.0703125 5.796875 0.109375 5.703125 0.109375 C 5.078125 0.109375 4.582031 -0.128906 4.21875 -0.609375 C 4.132812 -0.710938 4.050781 -0.828125 3.96875 -0.953125 L 2.90625 -2.640625 L 1.90625 -2.6875 L 1.875 -2.6875 C 1.832031 -2.6875 1.8125 -2.664062 1.8125 -2.625 L 1.8125 -0.71875 C 1.8125 -0.5625 1.851562 -0.445312 1.9375 -0.375 C 2.03125 -0.300781 2.179688 -0.25 2.390625 -0.21875 C 2.441406 -0.21875 2.507812 -0.207031 2.59375 -0.1875 C 2.675781 -0.175781 2.726562 -0.171875 2.75 -0.171875 C 2.78125 -0.171875 2.796875 -0.160156 2.796875 -0.140625 L 2.796875 -0.03125 C 2.796875 -0.0078125 2.785156 0 2.765625 0 Z M 2.15625 -5.6875 C 2.125 -5.6875 2.085938 -5.6875 2.046875 -5.6875 C 2.015625 -5.6875 1.96875 -5.6875 1.90625 -5.6875 C 1.84375 -5.6875 1.8125 -5.664062 1.8125 -5.625 L 1.8125 -3.109375 L 1.828125 -2.984375 C 1.835938 -2.921875 1.863281 -2.890625 1.90625 -2.890625 L 2.328125 -2.859375 C 3.109375 -2.859375 3.578125 -3.132812 3.734375 -3.6875 C 3.785156 -3.863281 3.8125 -4.066406 3.8125 -4.296875 C 3.8125 -4.734375 3.675781 -5.078125 3.40625 -5.328125 C 3.132812 -5.578125 2.785156 -5.703125 2.359375 -5.703125 C 2.316406 -5.703125 2.28125 -5.703125 2.25 -5.703125 C 2.21875 -5.703125 2.1875 -5.695312 2.15625 -5.6875 Z M 2.15625 -5.6875 "/></g></g></g><g fill="#000000" fill-opacity="1"><g transform="translate(237.390235, 230.240515)"><g><path d="M 1.046875 -5.1875 C 1.046875 -5.519531 0.851562 -5.6875 0.46875 -5.6875 C 0.40625 -5.6875 0.375 -5.695312 0.375 -5.71875 L 0.375 -5.8125 C 0.375 -5.84375 0.390625 -5.859375 0.421875 -5.859375 L 2.5 -5.859375 C 2.519531 -5.859375 2.53125 -5.84375 2.53125 -5.8125 L 2.53125 -5.71875 C 2.53125 -5.695312 2.46875 -5.6875 2.34375 -5.6875 C 2.21875 -5.6875 2.101562 -5.644531 2 -5.5625 C 1.90625 -5.488281 1.859375 -5.332031 1.859375 -5.09375 L 1.859375 -0.671875 C 1.859375 -0.335938 2.050781 -0.171875 2.4375 -0.171875 C 2.488281 -0.171875 2.515625 -0.160156 2.515625 -0.140625 L 2.515625 -0.03125 C 2.515625 -0.0078125 2.503906 0 2.484375 0 L 0.40625 0 C 0.382812 0 0.375 -0.0078125 0.375 -0.03125 L 0.375 -0.140625 C 0.375 -0.160156 0.429688 -0.171875 0.546875 -0.171875 C 0.671875 -0.171875 0.785156 -0.207031 0.890625 -0.28125 C 0.992188 -0.363281 1.046875 -0.523438 1.046875 -0.765625 Z M 1.046875 -5.1875 "/></g></g></g><g fill="#000000" fill-opacity="1"><g transform="translate(243.546845, 230.240515)"><g><path d="M 5.578125 -0.15625 C 5.566406 -0.132812 5.535156 -0.128906 5.484375 -0.140625 C 5.429688 -0.148438 5.367188 -0.15625 5.296875 -0.15625 C 5.222656 -0.15625 5.117188 -0.140625 4.984375 -0.109375 C 4.859375 -0.0859375 4.648438 -0.046875 4.359375 0.015625 C 4.078125 0.078125 3.820312 0.109375 3.59375 0.109375 C 3.070312 0.109375 2.5625 -0.0078125 2.0625 -0.25 C 1.570312 -0.5 1.175781 -0.851562 0.875 -1.3125 C 0.582031 -1.769531 0.4375 -2.296875 0.4375 -2.890625 C 0.4375 -3.492188 0.582031 -4.039062 0.875 -4.53125 C 1.3125 -5.238281 1.960938 -5.703125 2.828125 -5.921875 C 3.109375 -5.992188 3.382812 -6.03125 3.65625 -6.03125 C 4.039062 -6.03125 4.492188 -5.960938 5.015625 -5.828125 C 5.171875 -5.796875 5.300781 -5.757812 5.40625 -5.71875 C 5.519531 -5.675781 5.585938 -5.65625 5.609375 -5.65625 L 5.734375 -5.6875 L 5.859375 -5.6875 C 5.898438 -5.6875 5.921875 -5.660156 5.921875 -5.609375 L 5.921875 -4.328125 C 5.921875 -4.296875 5.894531 -4.28125 5.84375 -4.28125 C 5.789062 -4.28125 5.757812 -4.285156 5.75 -4.296875 C 5.738281 -4.316406 5.726562 -4.332031 5.71875 -4.34375 C 5.71875 -4.363281 5.710938 -4.382812 5.703125 -4.40625 C 5.691406 -4.425781 5.679688 -4.441406 5.671875 -4.453125 C 5.660156 -4.472656 5.65625 -4.488281 5.65625 -4.5 C 5.238281 -5.332031 4.609375 -5.75 3.765625 -5.75 C 3.003906 -5.75 2.410156 -5.503906 1.984375 -5.015625 C 1.554688 -4.535156 1.34375 -3.894531 1.34375 -3.09375 C 1.34375 -2.289062 1.578125 -1.601562 2.046875 -1.03125 C 2.515625 -0.457031 3.15625 -0.171875 3.96875 -0.171875 C 4.40625 -0.171875 4.804688 -0.300781 5.171875 -0.5625 C 5.535156 -0.832031 5.820312 -1.160156 6.03125 -1.546875 C 6.039062 -1.554688 6.054688 -1.5625 6.078125 -1.5625 L 6.140625 -1.5625 C 6.171875 -1.5625 6.1875 -1.546875 6.1875 -1.515625 C 6.1875 -1.484375 6.175781 -1.453125 6.15625 -1.421875 Z M 5.578125 -0.15625 "/></g></g></g><g fill="#000000" fill-opacity="1"><g transform="translate(253.301834, 230.240515)"><g><path d="M 2.203125 -0.03125 C 2.203125 -0.0078125 2.191406 0 2.171875 0 L 0.046875 0 C 0.0234375 0 0.015625 -0.0078125 0.015625 -0.03125 L 0.015625 -0.140625 C 0.015625 -0.160156 0.0351562 -0.171875 0.078125 -0.171875 C 0.453125 -0.179688 0.707031 -0.378906 0.84375 -0.765625 L 2.53125 -5.671875 C 2.539062 -5.679688 2.546875 -5.6875 2.546875 -5.6875 L 2.5 -5.828125 C 2.5 -5.847656 2.503906 -5.859375 2.515625 -5.859375 L 3.34375 -5.859375 C 3.34375 -5.847656 3.347656 -5.84375 3.359375 -5.84375 C 3.367188 -5.84375 3.378906 -5.832031 3.390625 -5.8125 L 5.140625 -0.890625 C 5.179688 -0.816406 5.210938 -0.75 5.234375 -0.6875 C 5.253906 -0.625 5.28125 -0.566406 5.3125 -0.515625 C 5.382812 -0.410156 5.492188 -0.328125 5.640625 -0.265625 C 5.765625 -0.203125 5.882812 -0.171875 6 -0.171875 C 6.019531 -0.171875 6.03125 -0.15625 6.03125 -0.125 L 6.03125 -0.03125 C 6.03125 -0.0078125 6.019531 0 6 0 L 3.453125 0 C 3.429688 0 3.421875 -0.0078125 3.421875 -0.03125 L 3.421875 -0.140625 C 3.421875 -0.160156 3.472656 -0.171875 3.578125 -0.171875 C 3.679688 -0.179688 3.765625 -0.1875 3.828125 -0.1875 C 4.210938 -0.226562 4.40625 -0.359375 4.40625 -0.578125 C 4.40625 -0.597656 4.398438 -0.617188 4.390625 -0.640625 L 3.765625 -2.40625 C 3.765625 -2.414062 3.757812 -2.425781 3.75 -2.4375 C 3.71875 -2.53125 3.660156 -2.578125 3.578125 -2.578125 L 2.109375 -2.578125 C 2.023438 -2.578125 1.957031 -2.535156 1.90625 -2.453125 C 1.894531 -2.429688 1.890625 -2.421875 1.890625 -2.421875 L 1.28125 -0.59375 L 1.28125 -0.5625 C 1.28125 -0.488281 1.316406 -0.421875 1.390625 -0.359375 C 1.554688 -0.234375 1.78125 -0.171875 2.0625 -0.171875 L 2.171875 -0.171875 C 2.191406 -0.171875 2.203125 -0.160156 2.203125 -0.140625 Z M 3.4375 -3.046875 C 3.488281 -3.046875 3.515625 -3.066406 3.515625 -3.109375 C 3.515625 -3.128906 3.507812 -3.15625 3.5 -3.1875 L 2.875 -4.890625 C 2.84375 -4.960938 2.820312 -5 2.8125 -5 C 2.800781 -5 2.78125 -4.957031 2.75 -4.875 L 2.171875 -3.1875 C 2.160156 -3.15625 2.15625 -3.125 2.15625 -3.09375 C 2.15625 -3.0625 2.175781 -3.046875 2.21875 -3.046875 Z M 3.4375 -3.046875 "/></g></g></g><g fill="#000000" fill-opacity="1"><g transform="translate(262.604431, 230.240515)"><g><path d="M 1.65625 -0.140625 C 1.65625 -0.160156 1.664062 -0.171875 1.6875 -0.171875 L 1.8125 -0.171875 C 2.082031 -0.171875 2.296875 -0.226562 2.453125 -0.34375 C 2.617188 -0.457031 2.703125 -0.59375 2.703125 -0.75 L 2.703125 -5.34375 C 2.703125 -5.394531 2.691406 -5.425781 2.671875 -5.4375 C 2.648438 -5.445312 2.625 -5.453125 2.59375 -5.453125 L 1 -5.453125 C 0.738281 -5.398438 0.566406 -5.203125 0.484375 -4.859375 C 0.441406 -4.679688 0.414062 -4.566406 0.40625 -4.515625 C 0.40625 -4.460938 0.390625 -4.4375 0.359375 -4.4375 L 0.296875 -4.4375 C 0.273438 -4.4375 0.265625 -4.441406 0.265625 -4.453125 L 0.265625 -4.59375 L 0.421875 -5.890625 C 0.429688 -5.972656 0.457031 -6.015625 0.5 -6.015625 C 0.539062 -6.015625 0.582031 -5.988281 0.625 -5.9375 C 0.664062 -5.882812 0.75 -5.859375 0.875 -5.859375 L 5.359375 -5.859375 C 5.472656 -5.859375 5.539062 -5.867188 5.5625 -5.890625 C 5.59375 -5.921875 5.617188 -5.945312 5.640625 -5.96875 C 5.660156 -6 5.6875 -6.015625 5.71875 -6.015625 C 5.757812 -6.015625 5.785156 -6 5.796875 -5.96875 C 5.804688 -5.945312 5.8125 -5.921875 5.8125 -5.890625 L 5.96875 -4.59375 L 5.96875 -4.453125 C 5.96875 -4.441406 5.957031 -4.4375 5.9375 -4.4375 L 5.875 -4.4375 C 5.84375 -4.4375 5.828125 -4.457031 5.828125 -4.5 C 5.773438 -4.78125 5.707031 -5 5.625 -5.15625 C 5.539062 -5.320312 5.410156 -5.421875 5.234375 -5.453125 L 3.640625 -5.453125 C 3.609375 -5.453125 3.578125 -5.445312 3.546875 -5.4375 C 3.523438 -5.425781 3.515625 -5.394531 3.515625 -5.34375 L 3.515625 -0.75 C 3.515625 -0.59375 3.597656 -0.457031 3.765625 -0.34375 C 3.929688 -0.226562 4.148438 -0.171875 4.421875 -0.171875 L 4.546875 -0.171875 C 4.566406 -0.171875 4.578125 -0.160156 4.578125 -0.140625 L 4.578125 -0.03125 C 4.578125 -0.0078125 4.566406 0 4.546875 0 L 1.6875 0 C 1.664062 0 1.65625 -0.0078125 1.65625 -0.03125 Z M 1.65625 -0.140625 "/></g></g></g><g fill="#000000" fill-opacity="1"><g transform="translate(272.093796, 230.240515)"><g><path d="M 1.046875 -5.1875 C 1.046875 -5.519531 0.851562 -5.6875 0.46875 -5.6875 C 0.40625 -5.6875 0.375 -5.695312 0.375 -5.71875 L 0.375 -5.8125 C 0.375 -5.84375 0.390625 -5.859375 0.421875 -5.859375 L 2.5 -5.859375 C 2.519531 -5.859375 2.53125 -5.84375 2.53125 -5.8125 L 2.53125 -5.71875 C 2.53125 -5.695312 2.46875 -5.6875 2.34375 -5.6875 C 2.21875 -5.6875 2.101562 -5.644531 2 -5.5625 C 1.90625 -5.488281 1.859375 -5.332031 1.859375 -5.09375 L 1.859375 -0.671875 C 1.859375 -0.335938 2.050781 -0.171875 2.4375 -0.171875 C 2.488281 -0.171875 2.515625 -0.160156 2.515625 -0.140625 L 2.515625 -0.03125 C 2.515625 -0.0078125 2.503906 0 2.484375 0 L 0.40625 0 C 0.382812 0 0.375 -0.0078125 0.375 -0.03125 L 0.375 -0.140625 C 0.375 -0.160156 0.429688 -0.171875 0.546875 -0.171875 C 0.671875 -0.171875 0.785156 -0.207031 0.890625 -0.28125 C 0.992188 -0.363281 1.046875 -0.523438 1.046875 -0.765625 Z M 1.046875 -5.1875 "/></g></g></g><g fill="#000000" fill-opacity="1"><g transform="translate(278.250406, 230.240515)"><g><path d="M 5.328125 -0.359375 C 5.078125 -0.210938 4.8125 -0.0976562 4.53125 -0.015625 C 4.25 0.0664062 3.992188 0.109375 3.765625 0.109375 C 3.316406 0.109375 2.882812 0.0351562 2.46875 -0.109375 C 1.90625 -0.316406 1.453125 -0.617188 1.109375 -1.015625 C 0.671875 -1.523438 0.453125 -2.175781 0.453125 -2.96875 C 0.453125 -3.53125 0.597656 -4.046875 0.890625 -4.515625 C 1.179688 -4.984375 1.582031 -5.351562 2.09375 -5.625 C 2.613281 -5.894531 3.164062 -6.03125 3.75 -6.03125 C 4.34375 -6.03125 4.875 -5.894531 5.34375 -5.625 C 5.8125 -5.363281 6.1875 -5.003906 6.46875 -4.546875 C 6.75 -4.085938 6.890625 -3.585938 6.890625 -3.046875 C 6.890625 -2.515625 6.75 -2.007812 6.46875 -1.53125 C 6.1875 -1.050781 5.804688 -0.660156 5.328125 -0.359375 Z M 1.328125 -3.09375 C 1.328125 -2.632812 1.425781 -2.175781 1.625 -1.71875 C 1.832031 -1.269531 2.125 -0.898438 2.5 -0.609375 C 2.882812 -0.328125 3.328125 -0.1875 3.828125 -0.1875 C 4.535156 -0.1875 5.085938 -0.460938 5.484375 -1.015625 C 5.835938 -1.503906 6.015625 -2.128906 6.015625 -2.890625 C 6.015625 -3.648438 5.796875 -4.304688 5.359375 -4.859375 C 5.140625 -5.117188 4.875 -5.328125 4.5625 -5.484375 C 4.257812 -5.648438 3.953125 -5.734375 3.640625 -5.734375 C 3.328125 -5.734375 3.066406 -5.695312 2.859375 -5.625 C 2.660156 -5.5625 2.476562 -5.46875 2.3125 -5.34375 C 2.15625 -5.226562 2.015625 -5.085938 1.890625 -4.921875 C 1.765625 -4.753906 1.660156 -4.578125 1.578125 -4.390625 C 1.410156 -3.984375 1.328125 -3.550781 1.328125 -3.09375 Z M 1.328125 -3.09375 "/></g></g></g><g fill="#000000" fill-opacity="1"><g transform="translate(288.852072, 230.240515)"><g><path d="M 0.28125 0 C 0.257812 0 0.25 -0.0078125 0.25 -0.03125 L 0.25 -0.140625 C 0.25 -0.160156 0.265625 -0.171875 0.296875 -0.171875 L 0.390625 -0.171875 C 0.535156 -0.171875 0.640625 -0.179688 0.703125 -0.203125 C 0.898438 -0.304688 1 -0.582031 1 -1.03125 L 1 -5.34375 C 1 -5.53125 0.820312 -5.640625 0.46875 -5.671875 C 0.382812 -5.679688 0.328125 -5.6875 0.296875 -5.6875 C 0.265625 -5.6875 0.25 -5.695312 0.25 -5.71875 L 0.25 -5.8125 C 0.25 -5.84375 0.257812 -5.859375 0.28125 -5.859375 L 1.796875 -5.859375 L 5.734375 -1.5 C 5.753906 -1.488281 5.765625 -1.476562 5.765625 -1.46875 C 5.773438 -1.457031 5.785156 -1.453125 5.796875 -1.453125 C 5.804688 -1.453125 5.8125 -1.46875 5.8125 -1.5 L 5.8125 -4.359375 C 5.8125 -4.910156 5.765625 -5.269531 5.671875 -5.4375 C 5.585938 -5.601562 5.40625 -5.6875 5.125 -5.6875 L 4.921875 -5.6875 C 4.890625 -5.6875 4.875 -5.695312 4.875 -5.71875 L 4.875 -5.8125 C 4.875 -5.84375 4.890625 -5.859375 4.921875 -5.859375 L 7.078125 -5.859375 C 7.097656 -5.859375 7.109375 -5.84375 7.109375 -5.8125 L 7.109375 -5.71875 C 7.109375 -5.695312 7.066406 -5.6875 6.984375 -5.6875 C 6.898438 -5.6875 6.765625 -5.640625 6.578125 -5.546875 C 6.390625 -5.453125 6.296875 -5.335938 6.296875 -5.203125 L 6.296875 -0.125 C 6.296875 -0.0625 6.285156 -0.0195312 6.265625 0 C 6.253906 0.03125 6.21875 0.046875 6.15625 0.046875 C 6.09375 0.046875 6.046875 0.03125 6.015625 0 C 5.984375 -0.0195312 5.945312 -0.0507812 5.90625 -0.09375 L 1.625 -4.84375 C 1.601562 -4.863281 1.582031 -4.875 1.5625 -4.875 C 1.539062 -4.875 1.53125 -4.863281 1.53125 -4.84375 L 1.53125 -0.703125 C 1.53125 -0.441406 1.734375 -0.273438 2.140625 -0.203125 C 2.242188 -0.179688 2.320312 -0.171875 2.375 -0.171875 C 2.4375 -0.171875 2.46875 -0.160156 2.46875 -0.140625 L 2.46875 -0.03125 C 2.46875 -0.0078125 2.457031 0 2.4375 0 Z M 0.28125 0 "/></g></g></g></svg>